<svg width="18" height="18" viewBox="0 0 18 18" fill="none" xmlns="http://www.w3.org/2000/svg">
<path d="M5.67799 11.5322C6.86726 9.11102 7.4619 7.90043 8.31782 7.61197C8.76078 7.46268 9.23922 7.46268 9.68218 7.61197C10.5381 7.90043 11.1327 9.11102 12.322 11.5322L12.9811 12.874C13.2883 13.4994 13.4419 13.8121 13.4783 14.0252C13.6292 14.9092 12.9752 15.724 12.0941 15.7497C11.8817 15.7559 11.55 15.665 10.8867 15.4832C10.5076 15.3793 10.3181 15.3274 10.1285 15.289C9.38346 15.1383 8.61655 15.1383 7.8715 15.289C7.68194 15.3274 7.4924 15.3793 7.11333 15.4832C6.45 15.665 6.11833 15.7559 5.90594 15.7497C5.02485 15.724 4.37082 14.9092 4.52172 14.0252C4.55809 13.8121 4.7117 13.4994 5.01892 12.874L5.67799 11.5322Z" fill="white"/>
<path d="M4.60858 4.14559C4.91744 5.36866 5.79078 6.18304 6.55925 5.96456C7.32771 5.74608 7.70028 4.57748 7.39142 3.35441C7.08256 2.13134 6.20922 1.31696 5.44076 1.53544C4.6723 1.75392 4.29972 2.92252 4.60858 4.14559Z" fill="white"/>
<path d="M13.3914 4.14559C13.0826 5.36866 12.2092 6.18304 11.4408 5.96456C10.6723 5.74608 10.2997 4.57748 10.6086 3.35441C10.9174 2.13134 11.7908 1.31696 12.5592 1.53544C13.3277 1.75392 13.7003 2.92252 13.3914 4.14559Z" fill="white"/>
<path d="M1.65124 9.22283C1.98875 10.1266 2.78226 10.6756 3.4236 10.4489C4.06494 10.2223 4.31126 9.30595 3.97376 8.40217C3.63626 7.49839 2.84274 6.94944 2.2014 7.17606C1.56006 7.40268 1.31374 8.31905 1.65124 9.22283Z" fill="white"/>
<path d="M16.3488 9.22283C16.0113 10.1266 15.2177 10.6756 14.5764 10.4489C13.9351 10.2223 13.6887 9.30595 14.0262 8.40217C14.3637 7.49839 15.1573 6.94944 15.7986 7.17606C16.4399 7.40268 16.6863 8.31905 16.3488 9.22283Z" fill="white"/>
</svg>
